<svg xmlns="http://www.w3.org/2000/svg" width="11.382" height="22.333" viewBox="0 0 11.382 22.333"><g transform="translate(0)"><path d="M146.5,27.315c-.111,0-.182.013-.253.013-1.516,0-3.027,0-4.543,0-.213,0-.27-.058-.27-.27q.007-5.292,0-10.588v-.306H139V12.4h.239c.665,0,1.33,0,1.994,0,.168,0,.213-.049.213-.213-.009-.988-.009-1.981,0-2.969a4.36,4.36,0,0,1,.434-1.99,3.785,3.785,0,0,1,2.092-1.808,6.589,6.589,0,0,1,2.318-.412C147.576,5,148.861,5,150.147,5c.12,0,.217,0,.217.164q-.007,1.828,0,3.656a.36.36,0,0,1-.022.084h-.244c-.8,0-1.6,0-2.393,0a1.16,1.16,0,0,0-1.068.589.853.853,0,0,0-.115.417c-.013.753,0,1.507-.009,2.26,0,.177.053.226.226.226,1.108-.009,2.216,0,3.324,0h.324c-.155,1.268-.306,2.509-.461,3.763H146.5Z" transform="translate(-139 -5)"/></g></svg>