<svg xmlns="http://www.w3.org/2000/svg" width="249.292" height="22.333" viewBox="0 0 249.292 22.333"><g transform="translate(0 0)"><g transform="translate(217.512)"><path d="M19.183,114.228c-3.571-.113-6.967-.2-10.363-.331a11.761,11.761,0,0,1-2.189-.313,3.63,3.63,0,0,1-2.739-2.439,12.977,12.977,0,0,1-.619-3.271,63.122,63.122,0,0,1-.113-7.843,19.581,19.581,0,0,1,.494-4.4,4.527,4.527,0,0,1,1.22-2.314,4.052,4.052,0,0,1,2.564-1.094c2.677-.131,5.347-.294,8.024-.319,3.6-.038,7.211.013,10.813.081a43.193,43.193,0,0,1,4.672.313,3.636,3.636,0,0,1,3.033,2.352,10.989,10.989,0,0,1,.688,3.29,62.649,62.649,0,0,1,.113,8.462,18.2,18.2,0,0,1-.544,4.265,3.957,3.957,0,0,1-3.083,3.021,11.359,11.359,0,0,1-1.951.213C25.8,114.022,22.4,114.128,19.183,114.228Zm-3.458-7.111c2.852-1.476,5.672-2.939,8.549-4.434-2.871-1.5-5.691-2.971-8.549-4.465Z" transform="translate(-3.09 -91.895)"/></g><path d="M22.9,40.763.819,49.322c-.889.4-1.189,1.2-.215,1.63l5.665,1.81,13.7-8.509c.748-.534,1.513-.392.855.2L9.057,55.155l-.37,4.531a.837.837,0,0,0,1.369.355l3.255-3.1,5.574,4.2c1.295.77,2,.273,2.278-1.139l3.656-17.4C25.2,40.863,24.551,40.1,22.9,40.763Z" transform="translate(126.935 -40.525)"/><g transform="translate(82.551)"><path d="M31.409,20.032c0,1.566-.031,3.136.009,4.7A6.221,6.221,0,0,1,27.527,30.6a7.037,7.037,0,0,1-2.794.585c-3.028,0-6.06.045-9.088-.013a6.626,6.626,0,0,1-5.5-2.879A5.617,5.617,0,0,1,9.1,24.958V15.286a6.053,6.053,0,0,1,3.559-5.668,6.838,6.838,0,0,1,3.185-.742c2.938,0,5.88-.018,8.818.009a6.763,6.763,0,0,1,5.587,2.726,5.63,5.63,0,0,1,1.161,3.5Zm-20.649,0v4.949a3.867,3.867,0,0,0,.553,2.056,4.975,4.975,0,0,0,4.4,2.474c3.019.045,6.042.018,9.065.009a4.918,4.918,0,0,0,2.132-.472,4.5,4.5,0,0,0,2.839-4.35c-.018-3.194,0-6.388,0-9.582a4.06,4.06,0,0,0-.792-2.461,5.029,5.029,0,0,0-4.175-2.105c-3.014-.036-6.028-.013-9.043-.009a5.311,5.311,0,0,0-1.867.355,4.609,4.609,0,0,0-3.122,4.476C10.8,16.928,10.76,18.48,10.76,20.032Z" transform="translate(-9.1 -8.869)"/><path d="M146.245,143.347a5.174,5.174,0,1,1,5.237-5.178A5.211,5.211,0,0,1,146.245,143.347Zm0-1.665a3.512,3.512,0,1,0-3.586-3.514A3.545,3.545,0,0,0,146.245,141.683Z" transform="translate(-135.066 -127.415)"/><path d="M364.2,98a1.149,1.149,0,1,1-1.1,1.156A1.13,1.13,0,0,1,364.2,98Z" transform="translate(-347.174 -93.99)"/></g><g transform="translate(174.495)"><path d="M21.191,10.323A10.42,10.42,0,0,1,5.76,19.361L0,21.191l1.878-5.538a10.214,10.214,0,0,1-1.493-5.33,10.4,10.4,0,0,1,20.806,0Zm-10.4-8.679a8.722,8.722,0,0,0-8.746,8.679,8.588,8.588,0,0,0,1.666,5.088L2.615,18.634l3.361-1.068a8.755,8.755,0,0,0,13.558-7.243A8.723,8.723,0,0,0,10.788,1.644ZM16.042,12.7c-.064-.105-.234-.169-.489-.3s-1.509-.739-1.742-.823-.4-.127-.574.126-.659.823-.808.992-.3.19-.553.064a6.98,6.98,0,0,1-2.05-1.256A7.629,7.629,0,0,1,8.407,9.756c-.149-.253-.016-.39.112-.516s.255-.3.383-.443a1.7,1.7,0,0,0,.255-.422.461.461,0,0,0-.021-.443c-.064-.126-.574-1.372-.786-1.878s-.425-.422-.574-.422-.319-.021-.489-.021a.941.941,0,0,0-.68.316,2.829,2.829,0,0,0-.892,2.11,4.9,4.9,0,0,0,1.041,2.617,10.424,10.424,0,0,0,4.356,3.82c2.593,1.013,2.593.675,3.06.632a2.579,2.579,0,0,0,1.722-1.2A2.109,2.109,0,0,0,16.042,12.7Z" transform="translate(0)"/></g><g transform="translate(34.217)"><path d="M3.338,93.219a11.367,11.367,0,0,0,8.125-2.32A5.762,5.762,0,0,1,6.232,87a6.2,6.2,0,0,0,2.454-.1,5.765,5.765,0,0,1-4.431-5.574,5.958,5.958,0,0,0,2.524.677,5.653,5.653,0,0,1-2.444-4.833,5.207,5.207,0,0,1,.752-2.615A16.056,16.056,0,0,0,16.619,80.4c-.027-.2-.043-.365-.064-.532a5.567,5.567,0,0,1,4.5-6.246,5.378,5.378,0,0,1,4.876,1.412.636.636,0,0,0,.666.166,13.392,13.392,0,0,0,3.1-1.208,5.8,5.8,0,0,1-2.229,3c.242-.043.489-.075.73-.124s.5-.113.757-.183.478-.14.714-.22a4.973,4.973,0,0,1,.768-.22c-.14.193-.274.4-.424.585a12.521,12.521,0,0,1-2.132,2.1.424.424,0,0,0-.145.3,16.442,16.442,0,0,1-7.347,14.06,15.011,15.011,0,0,1-5.113,2.068,16.885,16.885,0,0,1-5.472.236,15.159,15.159,0,0,1-5.225-1.606c-.435-.22-.854-.467-1.278-.7A.4.4,0,0,0,3.338,93.219Z" transform="translate(-3.3 -73.51)"/></g><g transform="translate(0)"><path d="M146.5,27.315c-.111,0-.182.013-.253.013-1.516,0-3.027,0-4.543,0-.213,0-.27-.058-.27-.27q.007-5.292,0-10.588v-.306H139V12.4h.239c.665,0,1.33,0,1.994,0,.168,0,.213-.049.213-.213-.009-.988-.009-1.981,0-2.969a4.36,4.36,0,0,1,.434-1.99,3.785,3.785,0,0,1,2.092-1.808,6.589,6.589,0,0,1,2.318-.412C147.576,5,148.861,5,150.147,5c.12,0,.217,0,.217.164q-.007,1.828,0,3.656a.36.36,0,0,1-.022.084h-.244c-.8,0-1.6,0-2.393,0a1.16,1.16,0,0,0-1.068.589.853.853,0,0,0-.115.417c-.013.753,0,1.507-.009,2.26,0,.177.053.226.226.226,1.108-.009,2.216,0,3.324,0h.324c-.155,1.268-.306,2.509-.461,3.763H146.5Z" transform="translate(-139 -5)"/></g></g></svg>