<svg xmlns="http://www.w3.org/2000/svg" width="22.32" height="22.333" viewBox="0 0 22.32 22.333"><path d="M31.409,20.032c0,1.566-.031,3.136.009,4.7A6.221,6.221,0,0,1,27.527,30.6a7.037,7.037,0,0,1-2.794.585c-3.028,0-6.06.045-9.088-.013a6.626,6.626,0,0,1-5.5-2.879A5.617,5.617,0,0,1,9.1,24.958V15.286a6.053,6.053,0,0,1,3.559-5.668,6.838,6.838,0,0,1,3.185-.742c2.938,0,5.88-.018,8.818.009a6.763,6.763,0,0,1,5.587,2.726,5.63,5.63,0,0,1,1.161,3.5Zm-20.649,0v4.949a3.867,3.867,0,0,0,.553,2.056,4.975,4.975,0,0,0,4.4,2.474c3.019.045,6.042.018,9.065.009a4.918,4.918,0,0,0,2.132-.472,4.5,4.5,0,0,0,2.839-4.35c-.018-3.194,0-6.388,0-9.582a4.06,4.06,0,0,0-.792-2.461,5.029,5.029,0,0,0-4.175-2.105c-3.014-.036-6.028-.013-9.043-.009a5.311,5.311,0,0,0-1.867.355,4.609,4.609,0,0,0-3.122,4.476C10.8,16.928,10.76,18.48,10.76,20.032Z" transform="translate(-9.1 -8.869)"/><path d="M146.245,143.347a5.174,5.174,0,1,1,5.237-5.178A5.211,5.211,0,0,1,146.245,143.347Zm0-1.665a3.512,3.512,0,1,0-3.586-3.514A3.545,3.545,0,0,0,146.245,141.683Z" transform="translate(-135.066 -127.415)"/><path d="M364.2,98a1.149,1.149,0,1,1-1.1,1.156A1.13,1.13,0,0,1,364.2,98Z" transform="translate(-347.174 -93.99)"/></svg>