<svg xmlns="http://www.w3.org/2000/svg" width="21.191" height="21.191" viewBox="0 0 21.191 21.191"><path d="M21.191,10.323A10.42,10.42,0,0,1,5.76,19.361L0,21.191l1.878-5.538a10.214,10.214,0,0,1-1.493-5.33,10.4,10.4,0,0,1,20.806,0Zm-10.4-8.679a8.722,8.722,0,0,0-8.746,8.679,8.588,8.588,0,0,0,1.666,5.088L2.615,18.634l3.361-1.068a8.755,8.755,0,0,0,13.558-7.243A8.723,8.723,0,0,0,10.788,1.644ZM16.042,12.7c-.064-.105-.234-.169-.489-.3s-1.509-.739-1.742-.823-.4-.127-.574.126-.659.823-.808.992-.3.19-.553.064a6.98,6.98,0,0,1-2.05-1.256A7.629,7.629,0,0,1,8.407,9.756c-.149-.253-.016-.39.112-.516s.255-.3.383-.443a1.7,1.7,0,0,0,.255-.422.461.461,0,0,0-.021-.443c-.064-.126-.574-1.372-.786-1.878s-.425-.422-.574-.422-.319-.021-.489-.021a.941.941,0,0,0-.68.316,2.829,2.829,0,0,0-.892,2.11,4.9,4.9,0,0,0,1.041,2.617,10.424,10.424,0,0,0,4.356,3.82c2.593,1.013,2.593.675,3.06.632a2.579,2.579,0,0,0,1.722-1.2A2.109,2.109,0,0,0,16.042,12.7Z" transform="translate(0)"/></svg>