<svg xmlns="http://www.w3.org/2000/svg" width="27.137" height="22.203" viewBox="0 0 27.137 22.203"><path d="M3.338,93.219a11.367,11.367,0,0,0,8.125-2.32A5.762,5.762,0,0,1,6.232,87a6.2,6.2,0,0,0,2.454-.1,5.765,5.765,0,0,1-4.431-5.574,5.958,5.958,0,0,0,2.524.677,5.653,5.653,0,0,1-2.444-4.833,5.207,5.207,0,0,1,.752-2.615A16.056,16.056,0,0,0,16.619,80.4c-.027-.2-.043-.365-.064-.532a5.567,5.567,0,0,1,4.5-6.246,5.378,5.378,0,0,1,4.876,1.412.636.636,0,0,0,.666.166,13.392,13.392,0,0,0,3.1-1.208,5.8,5.8,0,0,1-2.229,3c.242-.043.489-.075.73-.124s.5-.113.757-.183.478-.14.714-.22a4.973,4.973,0,0,1,.768-.22c-.14.193-.274.4-.424.585a12.521,12.521,0,0,1-2.132,2.1.424.424,0,0,0-.145.3,16.442,16.442,0,0,1-7.347,14.06,15.011,15.011,0,0,1-5.113,2.068,16.885,16.885,0,0,1-5.472.236,15.159,15.159,0,0,1-5.225-1.606c-.435-.22-.854-.467-1.278-.7A.4.4,0,0,0,3.338,93.219Z" transform="translate(-3.3 -73.51)"/></svg>