<svg xmlns="http://www.w3.org/2000/svg" width="31.78" height="22.333" viewBox="0 0 31.78 22.333"><path d="M19.183,114.228c-3.571-.113-6.967-.2-10.363-.331a11.761,11.761,0,0,1-2.189-.313,3.63,3.63,0,0,1-2.739-2.439,12.977,12.977,0,0,1-.619-3.271,63.122,63.122,0,0,1-.113-7.843,19.581,19.581,0,0,1,.494-4.4,4.527,4.527,0,0,1,1.22-2.314,4.052,4.052,0,0,1,2.564-1.094c2.677-.131,5.347-.294,8.024-.319,3.6-.038,7.211.013,10.813.081a43.193,43.193,0,0,1,4.672.313,3.636,3.636,0,0,1,3.033,2.352,10.989,10.989,0,0,1,.688,3.29,62.649,62.649,0,0,1,.113,8.462,18.2,18.2,0,0,1-.544,4.265,3.957,3.957,0,0,1-3.083,3.021,11.359,11.359,0,0,1-1.951.213C25.8,114.022,22.4,114.128,19.183,114.228Zm-3.458-7.111c2.852-1.476,5.672-2.939,8.549-4.434-2.871-1.5-5.691-2.971-8.549-4.465Z" transform="translate(-3.09 -91.895)"/></svg>